<?xml version="1.0" encoding="UTF-8"?>
<svg width="65px" height="65px" viewBox="0 0 65 65" version="1.1" xmlns="http://www.w3.org/2000/svg" xmlns:xlink="http://www.w3.org/1999/xlink">
    <!-- Generator: Sketch 60.1 (88133) - https://sketch.com -->
    <title>biker</title>
    <desc>Created with Sketch.</desc>
    <g id="Page-1" stroke="none" stroke-width="1" fill="none" fill-rule="evenodd">
        <g id="biker">
            <rect id="BG" fill-opacity="0.01" fill="#FFFFFF" x="0" y="0" width="65" height="65"></rect>
            <g transform="translate(20.312500, 8.251953)" fill-rule="nonzero">
                <path d="M24.229821,39.4080143 C24.229821,33.5595244 18.8099102,28.8183594 12.1240309,28.8183594 C5.43815154,28.8183594 0.0181011146,33.5595244 0.0181011146,39.4080143 C0.0181011146,39.862801 -0.0104041392,45.0950741 0.00412795094,45.5974549 C0.0467460999,47.0645176 0.458116037,48.4960938 3.02610405,48.4960938 L21.2148314,48.4960938 C23.7902252,48.4960938 24.2015951,47.0671618 24.2439338,45.5988465 C24.2584659,45.096605 24.229821,39.8639141 24.229821,39.4080143" id="Fill-2" fill="#E6E6C9"></path>
                <path d="M8.25195312,48.4960938 L15.9960938,48.4960938 L15.9960938,43.1967687 C14.7584458,43.1967687 13.0169688,41.9260301 12.2036572,41.0058594 C11.0455016,41.9260301 9.59568529,43.1967687 8.25195312,43.1967687 L8.25195312,48.4960938" id="Fill-3" fill="#FF6600"></path>
                <path d="M9.140625,48.4960938 L15.234375,48.4960938 L15.234375,43.7020457 C14.2605515,43.7020457 12.8902269,42.7055596 12.2501341,41.8945313 C11.3389446,42.7055596 10.1980514,43.7020457 9.140625,43.7020457 L9.140625,48.4960938" id="Fill-4" fill="#666666"></path>
                <polygon id="Fill-5" fill="#FF6600" points="8.75976563 45.0683594 15.9960938 45.0683594 15.9960938 44.5605469 8.75976563 44.5605469"></polygon>
                <path d="M7.64956649,29.3261719 C3.1682525,30.9007917 0,34.7701996 0,39.2942551 C0,39.7547346 0.163870303,44.9644363 0.178424113,45.4731055 C0.220966018,46.9585321 0.440672573,48.4960938 3.01249873,48.4960938 L9.83473711,48.4960938 C9.5394627,42.1268797 8.81093256,35.7369529 7.64956649,29.3261719 Z M16.5984804,29.3261719 C21.0797944,30.9007917 24.2480469,34.7701996 24.2480469,39.2942551 C24.2480469,39.7547346 24.1454705,44.9557002 24.1309166,45.4642284 C24.0882349,46.9497959 23.8073743,48.4960938 21.2356881,48.4960938 L14.4133097,48.4960938 C14.7085842,42.1268797 15.4371143,35.7369529 16.5984804,29.3261719 L16.5984804,29.3261719 Z" id="Fill-6" fill="#2A2A2A"></path>
                <path d="M24.229821,39.2352347 C24.229821,36.6873462 23.2385648,34.3462158 21.5819065,32.5001418 C20.9888853,34.3175702 20.6574419,36.3427496 20.6574419,38.4782564 C20.6574419,38.7786086 20.6518527,43.8882827 20.6473813,48.4960938 L21.2148314,48.4960938 C23.7902252,48.4960938 24.2015951,47.0399955 24.2439338,45.5437651 C24.2584659,45.0319751 24.229821,39.6998021 24.229821,39.2352347 Z M2.66601563,32.5 C1.00935734,34.346074 0.0181011146,36.6873462 0.0181011146,39.2352347 C0.0181011146,39.6986677 -0.0104041392,45.0304152 0.00412795094,45.5423471 C0.0467460999,47.0373009 0.458116037,48.4960938 3.02610405,48.4960938 L3.60068055,48.4960938 C3.59620913,43.8882827 3.59061987,38.7786086 3.59061987,38.4782564 C3.59061987,36.3427496 3.25917641,34.3175702 2.66601563,32.5 L2.66601563,32.5 Z" id="Fill-7" fill="#FAB385"></path>
                <path d="M2.30855229,37.7791882 C2.45337851,36.5673661 2.26116225,36.6864059 1.8396844,37.6029695 C1.44099292,38.469732 0.903905723,39.3015917 0.0124416346,39.7323483 C0.00671009508,39.9629078 0.00531215859,40.1575712 0,41.60577 C0.744121584,41.3007218 2.07272041,39.7516443 2.30855229,37.7791882 Z M24.2349062,39.4131116 C24.2349062,38.1656771 23.9972571,36.9679016 23.5606815,35.8534112 C23.3273659,36.0082055 23.0143679,36.1848497 22.8092907,36.3141049 C22.5161433,36.4988366 22.5912126,36.4504546 22.6077081,36.7655765 C22.6239242,37.0747394 22.7031873,37.4556951 22.6250426,37.5107454 C22.2446641,37.7706751 21.613356,37.3596402 21.5525458,37.8282795 C21.5209525,38.072318 21.4875417,39.2100771 21.6367016,39.4133953 C21.7261695,39.5351308 21.8357676,39.5622304 21.9522158,39.5626561 C22.1034725,39.5630818 22.2880002,39.5853575 22.4345038,39.6449483 C22.5470378,39.6907765 22.4919591,39.7358952 22.5480163,39.8847304 C22.6229457,40.0830826 22.7206615,40.4349523 22.7542119,40.6239403 C22.8290015,41.0432043 23.4084462,42.1879157 23.7970726,42.3871193 C23.9680402,42.4746609 24.0988871,42.1687614 24.2480469,41.8767666 C24.2427348,40.3580517 24.2349062,39.6558731 24.2349062,39.4131116 Z M1.54695651,34.1503906 C1.91852802,34.7462988 2.00240421,35.7164943 1.70604167,36.7120865 C1.38703256,37.7830188 0.717420997,38.5821034 0.030894396,38.8125211 C0.0654234269,38.3176337 0.115050172,37.8348061 0.208292534,37.345168 C0.447339671,36.0913488 0.892722231,35.1926626 1.54695651,34.1503906 L1.54695651,34.1503906 Z" id="Fill-8" fill="#93778C"></path>
                <path d="M3.93554688,20.4394531 C2.61283461,20.1220532 1.37035448,18.214351 1.05781251,15.9080761 C0.843394186,14.3265793 1.46512347,13.8956747 2.49528193,13.8378906 C2.63268296,16.2495529 3.14231089,18.4961175 3.93554688,20.4394531" id="Fill-9" fill="#F49A6A"></path>
                <path d="M15.7684445,34.0249009 C14.7962844,34.5752833 13.4934184,34.9121094 12.0611091,34.9121094 C10.6283781,34.9121094 9.32509047,34.5751433 8.35293038,34.0243418 C8.12496395,32.5027541 7.87183973,30.9800484 7.5939793,29.4560848 L7.109375,17.6464844 C10.4102499,17.6464844 13.7109843,17.6464844 17.0117188,17.6464844 L16.5238818,29.4752321 C16.2472864,30.9929066 15.995427,32.5096025 15.7684445,34.0249009" id="Fill-10" fill="#F49A6A"></path>
                <path d="M20.3125,20.4394531 C21.6352123,20.1220532 22.8776924,18.214351 23.1902343,15.9080761 C23.4046527,14.3265793 22.7829234,13.8956747 21.7527649,13.8378906 C21.6153639,16.2495529 21.105736,18.4961175 20.3125,20.4394531" id="Fill-11" fill="#F49A6A"></path>
                <path d="M21.4770871,8.29369751 C21.5835883,9.62834251 21.8359375,11.0017362 21.8359375,12.4383959 C21.8359375,20.8537612 17.5447491,27.6757812 12.2509766,27.6757812 C6.95748206,27.6757812 2.66601562,20.8537612 2.66601562,12.4383959 C2.66601562,10.2005547 2.96966891,8.0754368 3.51468767,6.16125261 C6.35045352,3.47660398 20.993244,2.22213347 21.4770871,8.29369751" id="Fill-12" fill="#FAB385"></path>
                <path d="M20.3770251,19.4772924 C20.1020562,20.3145074 19.7685329,20.9173472 19.3873038,21.7532946 C18.9222071,22.7731926 18.5597543,22.9672845 17.6550133,22.4785335 C14.0551039,20.1166125 11.354511,19.8677299 7.63582384,21.9804863 C7.30494317,22.1480983 6.96947271,22.3079636 6.64373813,22.4843083 C5.79713422,22.9426356 5.55971793,22.7877001 5.1177092,21.8538618 C4.77472819,21.1293272 4.46304111,20.6476187 4.20003337,19.907168 C3.17081224,17.0088886 3.47359798,13.9411662 3.35760196,10.8810498 C3.33326228,10.2372225 2.43172021,11.2326125 2.41210938,11.2182457 C2.43019029,11.3930411 2.55383591,13.4476263 2.74688441,15.1565645 C3.21170291,19.2712282 3.9825061,25.0334194 6.22467823,28.566934 C6.77113902,29.4279527 7.25862822,29.8151506 7.72775833,30.2054473 C9.37534665,31.5764855 15.2079705,31.5316947 16.8961713,30.3126343 C20.5390579,27.681971 21.5481118,15.6533441 22.0898438,11.3767024 C22.0208581,11.4065627 20.5243149,10.3348318 20.8976163,11.047535 C21.6043017,12.3967413 20.9910807,17.6076438 20.3770251,19.4772924 Z M14.9514998,25.0646882 C14.1053132,25.0504622 13.3061368,24.8382007 13.1474421,24.2733904 C13.0382611,23.8853475 12.8167005,23.9080244 12.4020913,23.8822488 C12.3408943,23.8860517 12.2845653,23.8888688 12.2325479,23.8918267 C12.1803915,23.8888688 12.1240625,23.8860517 12.0628655,23.8822488 C11.6483954,23.9080244 11.4266956,23.8853475 11.3176538,24.2733904 C11.1436598,24.8921463 10.201227,25.0873651 9.27019919,25.0635614 C8.59953645,25.0465184 8.19925288,24.8153829 8.36684902,24.1456391 C8.49703159,23.6249151 8.73862038,23.4164564 9.26533126,23.3834975 C10.0615868,23.3336364 11.0360088,23.1271497 12.2378331,22.6830482 C13.1813786,23.031653 13.9847274,23.2339143 14.6716629,23.3287066 C15.4419097,23.4351895 15.8293976,23.5158968 16.0118757,24.1456391 C16.2787779,25.0672235 15.8172973,25.0793366 14.9514998,25.0646882 L14.9514998,25.0646882 Z" id="Fill-13" fill="#7D5D48"></path>
                <path d="M3.21433351,13.2077444 C2.93448299,13.3786508 2.68419319,13.6129647 2.37464255,13.7203237 C2.06551023,13.8275425 1.04692131,13.8295022 0.719941023,13.8376206 C-0.527882682,13.8684145 1.12486672,11.2552684 1.12737659,11.2180357 C1.57552783,4.83109162 3.11477532,-0.013215793 12.1239537,-2.6975363e-05 C21.1332715,-0.013215793 22.6726585,4.83109162 23.1206702,11.2180357 C23.1231801,11.2552684 24.7759295,13.8684145 23.5281059,13.8376206 C23.2011255,13.8295022 22.1826761,13.8275425 21.8734043,13.7203237 C21.5638537,13.6129647 21.3135639,13.3786508 21.0337133,13.2077444 C18.8310236,12.2934442 5.41702329,12.2934442 3.21433351,13.2077444" id="Fill-14" fill="#3F3F3F"></path>
                <path d="M3.31522133,9.15870413 C2.56866375,8.97506464 2.38184917,8.82944371 2.41590465,8.27501801 C2.48597763,7.13838917 2.81686227,6.41701846 3.0133469,5.86708205 C4.42812046,1.90838145 7.40201786,0.75561929 11.4506947,0.761694702 C18.691196,0.750849433 19.9282644,4.65441609 20.2884396,9.80067072 C20.3485622,10.6605076 20.38486,10.549398 19.2456135,10.6598061 C19.0924339,10.6745366 18.1527552,10.6491441 16.7905363,10.6126687 C15.479611,10.5775963 14.0138243,6.69170611 12.2443413,6.66238553 C11.1804933,6.644709 10.0418073,8.83786111 9.01299576,8.86227155 C5.97351002,8.93452085 3.32573227,9.16122935 3.31522133,9.15870413" id="Fill-15" fill="#525252"></path>
                <path d="M20.5715673,12.7687716 C21.9334912,13.0685778 21.2086773,12.4015704 20.3327559,12.1000286 C20.0310993,11.9960438 19.5304329,11.7604507 18.5437644,11.6161156 C16.4013041,11.3031485 13.4621071,11.1706726 12.0377571,11.1721189 C8.53937816,11.1606936 5.61777784,11.553204 3.86048833,11.8245193 C2.77689859,11.991705 1.5730652,13.1983059 1.98826203,13.32572 C2.11381264,13.3643346 2.49227999,13.1385761 2.95509948,12.9559155 C3.45841912,12.7572016 5.60925884,12.5083032 6.29371215,12.4474163 C7.32870163,12.355146 10.3507145,12.2747348 11.6183706,12.2420498 C12.7011224,12.2139926 13.747005,12.2038689 14.6909389,12.2056044 C16.057611,12.2079184 16.8935909,12.3427083 17.5188302,12.373224 C18.7022738,12.4309291 19.086886,12.441776 20.5715673,12.7687716" id="Fill-16" fill="#636363"></path>
                <path d="M1.37924838,9.6209329 C3.87794937,9.35830003 6.40032227,9.18340613 8.94858198,9.10442647 L8.94858198,7.49023438 C6.36626795,7.55140346 3.87490388,7.70206333 1.34851643,7.96892985 C1.2034395,7.98425862 1.17381501,8.02309149 1.14335993,8.08323864 C1.12121078,8.12674317 1.01918626,9.05055681 1.01655605,9.14968284 C1.00935758,9.41289967 1.04534994,9.54998262 1.07455914,9.60881589 C1.10612167,9.67275874 1.14045286,9.6458969 1.37924838,9.6209329 Z M22.4879421,9.6209329 C19.9891027,9.35830003 17.4667298,9.18340613 14.91847,9.10442647 L14.91847,7.49023438 C17.5007841,7.55140346 19.9921483,7.70206333 22.5185356,7.96892985 C22.6636126,7.98425862 22.6933755,8.02309149 22.7238306,8.08323864 C22.7458413,8.12674317 22.8478659,9.05055681 22.8506345,9.14968284 C22.857833,9.41289967 22.8217021,9.54998262 22.792493,9.60881589 C22.7609304,9.67275874 22.7267376,9.6458969 22.4879421,9.6209329 L22.4879421,9.6209329 Z" id="Fill-17" fill="#94744C"></path>
                <path d="M17.6002738,4.25853506 C15.8313667,4.02789993 14.2073539,4.38971414 13.2752744,5.12077314 C12.2953602,5.88941396 12.2628216,5.95643246 11.2574604,5.14549426 C10.3306649,4.39785925 8.6902438,4.02532779 6.90145195,4.25853506 C4.25803363,4.60320166 2.70535566,5.91399217 2.94397247,8.25135189 C3.33457541,12.0818382 8.62196825,12.1618603 11.0932376,9.99983469 C11.518465,9.62773194 11.7773837,9.15760212 11.9274231,8.6333145 C11.9634381,8.50699392 12.0873353,8.37095633 12.2597624,8.39839249 C12.3551535,8.41353952 12.5228527,8.46626837 12.5627613,8.62759864 C12.6934721,9.15517289 12.9802017,9.62630298 13.4086273,9.9996918 C15.883512,12.1572876 21.1671503,12.0818382 21.5580314,8.25135189 C21.7963701,5.9138493 20.2438312,4.60334456 17.6002738,4.25853506" id="Fill-18" fill="#AA885D"></path>
                <path d="M17.2117119,5.12910455 C15.2372462,4.87493456 13.504107,5.59578186 13.3771003,6.74332156 C13.2660899,7.74504203 13.3597247,8.7368362 14.0809467,9.35939884 C15.9267509,10.9525049 19.8756825,10.893646 20.1676188,8.07107305 C20.3456489,6.34878486 19.1860398,5.38299489 17.2117119,5.12910455 Z M6.90926997,5.12910455 C8.88387364,4.87493456 10.6168749,5.59578186 10.7440196,6.74332156 C10.8548919,7.74504203 10.7612572,8.73697602 10.0400352,9.35939884 C8.19436891,10.9525049 4.24529945,10.8935062 3.95350102,8.07107305 C3.77533301,6.34878486 4.93494207,5.38313469 6.90926997,5.12910455 L6.90926997,5.12910455 Z" id="Fill-19" fill="#262626"></path>
                <path d="M14.1266243,7.77959861 C15.0264413,8.00921784 16.3752631,7.68777888 17.0236096,7.08025924 C17.889786,6.26897527 17.9328793,5.59968348 16.6396617,5.58724518 C15.8422958,5.57955859 14.7170032,5.74544904 14.1547046,6.15004286 C13.7145963,6.46659036 13.4215614,7.59987231 14.1266243,7.77959861 Z M6.77184047,5.61966859 C8.31499944,5.40220814 10.7985666,6.24172283 9.12042807,7.97833174 C8.18252214,8.94879788 5.92151135,9.33326683 4.82791331,8.71233062 C4.25643988,8.38795678 4.24434596,8.06414196 4.40559846,7.37248919 C4.63760752,6.37700672 5.49683332,5.79939488 6.77184047,5.61966859 L6.77184047,5.61966859 Z" id="Fill-20" fill="#393939"></path>
                <path d="M3.96399972,36.8219683 C3.90467205,35.3419191 3.61091781,34.3121652 3.40560567,33.5519366 C3.37649118,33.4447506 2.98083619,32.4005351 3.29340502,32.3156085 C3.64744825,31.9241518 5.66390169,30.4123437 6.44724639,30.0308115 C6.85004268,29.8345871 6.8825905,29.6807549 6.9975378,30.1029781 C7.2432257,31.0061216 7.21630853,35.4968852 5.51626922,32.6042742 C4.76176435,31.3205913 4.89291689,32.6612702 4.9570512,33.1365192 C5.0724105,33.9903229 4.99097233,36.9403552 4.67153687,37.5026578 C4.37283863,38.0280973 4.01165411,38.0090986 3.96399972,36.8219683" id="Fill-21" fill="#3F3F3F"></path>
            </g>
        </g>
    </g>
</svg>