<?xml version="1.0" encoding="UTF-8"?>
<svg width="65px" height="65px" viewBox="0 0 65 65" version="1.1" xmlns="http://www.w3.org/2000/svg" xmlns:xlink="http://www.w3.org/1999/xlink">
    <!-- Generator: Sketch 60.1 (88133) - https://sketch.com -->
    <title>writer</title>
    <desc>Created with Sketch.</desc>
    <g id="Page-1" stroke="none" stroke-width="1" fill="none" fill-rule="evenodd">
        <g id="writer">
            <rect id="BG" fill-opacity="0.01" fill="#FFFFFF" x="0" y="0" width="65" height="65"></rect>
            <g id="chix" transform="translate(32.000000, 30.500000) scale(-1, 1) translate(-32.000000, -30.500000) translate(18.000000, 3.000000)" fill-rule="nonzero">
                <path d="M19.0427619,22 C19.3573995,23.6697629 20.0071665,25.5570265 19.5326285,27.4750973 C18.9619243,29.7811878 18.5285311,31.9500312 18.5007785,33.8402214 C24.0130679,35.4110924 27.9789539,39.7874429 27.9789539,44.9406023 C27.9789539,45.445228 28.0120312,51.2371801 27.9952505,51.7932542 C27.946522,53.4183462 27.4713386,55 24.4974485,55 L3.49433971,55 C0.529001331,55 0.0539792257,53.4154196 0.00476667776,51.7915597 C-0.0120139944,51.2354855 0.0209019393,45.4439958 0.0209019393,44.9406023 C0.0209019393,39.7988414 3.96952318,35.4308093 9.46261165,33.851004 C9.42711408,31.9581951 9.14039048,29.7855008 8.46722736,27.4750973 C7.91201301,25.5696575 8.64245631,23.6697629 8.9570939,22 L19.0427619,22" id="Fill-149" fill="#F5A479"></path>
                <path d="M5,23 C3.1880169,22.6634434 1.48594379,20.6406018 1.05779266,18.1951316 C0.764061065,16.5181835 1.61576781,16.0612717 3.02698153,16 C3.21520716,18.5572182 3.9133463,20.9393743 5,23" id="Fill-150" fill="#F49A6A"></path>
                <path d="M23,23 C24.8119831,22.6634434 26.5140562,20.6406018 26.9422073,18.1951316 C27.235939,16.5181835 26.3842322,16.0612717 24.9730184,16 C24.7847929,18.5572182 24.0866537,20.9393743 23,23" id="Fill-151" fill="#F49A6A"></path>
                <path d="M26.9792621,44.5981333 C26.9792621,40.6911214 25.6728468,37.2163997 22.4108624,35 C21.9641024,40.3819567 18.3121173,44.5791788 13.87234,44.5791788 C9.47851066,44.5791788 5.85609754,40.4687648 5.34812663,35.1674045 C2.2241451,37.3893791 1.0205958,40.7881239 1.0205958,44.5981333 C1.0205958,45.1186645 0.988161971,51.1073236 1.00469686,51.6823294 C1.05318861,53.361473 0.72630653,55 3.64821261,55 L24.3436959,55 C27.2740284,55 26.9473052,53.3644994 26.9953201,51.6840814 C27.011855,51.1090758 26.9792621,45.1199388 26.9792621,44.5981333" id="Fill-152" fill="#2A2A2A"></path>
                <path d="M25.5566061,38.1391827 C25.2134226,37.7404446 24.8432026,37.3600668 24.4479362,37 L22.5976651,37 C22.5248484,37.3880145 22.435279,37.7680668 22.3296205,38.1391827 L25.5566061,38.1391827 Z M20.1887465,42.2871017 C19.8472218,42.7016009 19.4783285,43.0826284 19.0857162,43.4261218 L27,43.4261218 L27,42.2871017 L20.1887465,42.2871017 Z M8.64773207,43.4261218 C8.2552855,43.0826284 7.88655823,42.7016009 7.5450335,42.2871017 L1,42.2871017 L1,43.4261218 L8.64773207,43.4261218 Z M5.40366189,38.1391827 C5.29800318,37.7682294 5.20843381,37.3880145 5.13561723,37 L3.55189793,37 C3.15679745,37.3600668 2.78657735,37.7404446 2.44339394,38.1391827 L5.40366189,38.1391827 Z M1,54 L27,54 L27,52.8609796 L1,52.8609796 L1,54 Z M1,48.7130609 L27,48.7130609 L27,47.5740405 L1,47.5740405 L1,48.7130609 Z" id="Fill-153" fill="#B04878"></path>
                <path d="M27.9789539,44.5789894 C27.9789539,41.7119149 26.8343184,39.0774999 24.9214831,37.0001595 C24.2365413,39.0452658 23.8539742,41.3241489 23.8539742,43.7271809 C23.8539742,44.0651595 23.8473588,49.8149469 23.8421956,55 L24.4974485,55 C27.4713386,55 27.946522,53.3614893 27.9952505,51.6779786 C28.0120312,51.1019148 27.9789539,45.1017554 27.9789539,44.5789894 Z M3.07853401,37 C1.1655374,39.0773404 0.0209019393,41.7119149 0.0209019393,44.5789894 C0.0209019393,45.1004787 -0.0120139944,51.1001596 0.00476667776,51.6762234 C0.0539792257,53.3584573 0.529001331,55 3.49433971,55 L4.15782167,55 C4.15281975,49.8149469 4.1462043,44.0651595 4.1462043,43.7271809 C4.1462043,41.3241489 3.76347589,39.0452658 3.07853401,37 L3.07853401,37 Z" id="Fill-154" fill="#FFBE8E"></path>
                <path d="M23.5537472,10.1259352 C23.8219718,11.5773354 26,13.6326709 26,15.2152264 C26,24.4851896 21.0752627,32 15.0000798,32 C10.3882446,32 6.43955118,27.669547 4.80451418,21.5283749 C4.28577644,19.5795159 4,17.4484363 4,15.2152264 C4,12.7501277 5.00652031,10.4091996 5.63200533,8.30062604 C8.8360205,8.37869836 22.9424632,6.81802794 23.5537472,10.1259352" id="Fill-155" fill="#FBBB91"></path>
                <path d="M7.07714327,33 C7.11065781,32.9466301 5.85811279,26.5492019 9.96805112,22.0772102 C11.6830644,20.2110034 14.2436377,18.8297189 15.8858492,17.1937789 C18.0777628,15.0100445 19.1669045,12.7732569 20.2642244,10.2056387 C21.0316907,14.3792653 22.3159864,17.0686683 23.6246561,20.3956604 C25.0240877,15.6287877 27.0960547,4.71771726 19.7130788,3.57382618 C17.7641054,-0.290349608 11.1679992,1.22697286 9.72174346,1.64648933 C7.48396784,2.29548082 5.69743555,4.0128219 4.45451195,6.00588143 C2.43947158,8.64413162 1.74416558,13.6596418 2.0813954,18.6968483 C2.61666556,26.6885656 3.90978076,26.8149433 7.07714327,33" id="Fill-156" fill="#2A2A2A"></path>
                <path d="M21,9 C19.7638809,11.2814722 18.6711825,13.3416639 17.3413705,15.1927022 C14.9862072,18.4711176 11.6567375,19.4965674 8.85056434,22.7173395 C7.65050625,24.094633 6.09576577,27.4089571 6.31542516,31 C5.28875634,27.1673599 7.01227555,23.9254834 8.0048593,22.3825051 C10.2580968,18.8798171 13.3879959,17.282818 16.0214385,14.3173452 C17.5809541,12.5614338 19.0258648,10.8144996 21,9" id="Fill-157" fill="#DA5994"></path>
                <path d="M10.1527794,4 C9.79416242,3.40436471 8.11651714,3.37411654 7,3.08322699 C8.99723583,2.87936885 11.8550212,3.04591489 14,3.6281468 C12.3336691,3.84631397 11.8191103,3.78174228 10.1527794,4" id="Fill-158" fill="#2A2A2A"></path>
                <path d="M13.2236338,3.46016977 C13.1912234,2.13112082 10.8937597,0.966092753 10,0 C11.9658562,0.258404873 15.2947039,2.09735744 17,4 C15.3352568,3.8822119 14.8882174,3.57814972 13.2236338,3.46016977" id="Fill-159" fill="#2A2A2A"></path>
                <path d="M12.1759821,4.1531792 C11.711087,4.518624 11.2666854,4.9965685 10.7988858,5.37419478 C10.2454008,5.82104065 10.2010252,5.78377962 9.39451858,5.68489453 C8.82941531,5.615675 8.27593035,5.49386007 7.71082709,5.4246405 C6.86381765,5.32088284 6.91125921,5.67199647 7.15330801,6.37164414 C7.39116131,7.05853709 7.6162667,7.74342364 7.81248759,8.4296 C8.0413044,9.22927925 8.16716978,9.10947067 8.75889843,8.55413787 C9.20652734,8.1340913 9.55201167,7.77136942 9.99060409,7.34387067 C10.684316,6.66715287 10.6554315,6.78681812 11.7206076,6.91293239 C12.2518241,6.97584622 12.7833632,7.03861675 13.3145797,7.10153059 C13.9503612,7.17691253 14.1514231,7.22148247 13.8859762,6.57629325 C13.5963245,5.87234622 13.282952,5.06793772 12.9931388,4.3639907 C12.8779236,4.08395965 12.5926288,3.82556867 12.1759821,4.1531792" id="Fill-160" fill="#DA5994"></path>
                <path d="M23,13.4599542 C21.8814686,14.0415244 22.8006088,17.0002289 22.9393074,19 C21.4786908,17.267805 20.5877089,12.2537229 21.1912097,10 C22.091324,11.4750748 22.0998857,11.984721 23,13.4599542" id="Fill-161" fill="#2A2A2A"></path>
            </g>
        </g>
    </g>
</svg>