<?xml version="1.0" encoding="UTF-8"?>
<svg width="65px" height="65px" viewBox="0 0 65 65" version="1.1" xmlns="http://www.w3.org/2000/svg" xmlns:xlink="http://www.w3.org/1999/xlink">
    <!-- Generator: Sketch 60.1 (88133) - https://sketch.com -->
    <title>writer</title>
    <desc>Created with Sketch.</desc>
    <g id="Page-1" stroke="none" stroke-width="1" fill="none" fill-rule="evenodd">
        <g id="writer">
            <rect id="BG" fill-opacity="0.01" fill="#FFFFFF" x="0" y="0" width="65" height="65"></rect>
            <g id="hipster" transform="translate(18.000000, 1.000000)" fill-rule="nonzero">
                <path d="M29.9773627,47.4538543 C29.9773627,40.023515 23.2717982,34 14.9999653,34 C6.72813236,34 0.0223948694,40.023515 0.0223948694,47.4538543 C0.0223948694,48.0316476 -0.0128720991,54.6791021 0.00510713978,55.3173619 C0.0578347156,57.1814003 0.566785478,59 3.74392446,59 L26.2471893,59 C29.4334908,59 29.9426144,57.1845826 29.9949962,55.3191299 C30.0128026,54.6810467 29.9773627,48.0330623 29.9773627,47.4538543" id="Fill-254" fill="#D4461A"></path>
                <path d="M28,41.1352546 C27.2872942,39.9130127 26.3740654,38.8035713 25.3005882,37.8426451 L25.3005882,59 L26.0557778,59 C26.8685752,59 27.5036209,58.8774753 28,58.6638967 L28,41.1352546 Z M22.1748105,35.704208 C21.3237778,35.2690947 20.4202352,34.9091229 19.4753986,34.6338403 L19.4753986,59 L22.1748105,59 L22.1748105,35.704208 Z M16.3497909,34.0569307 C15.9052418,34.0199787 15.4552549,34 15,34 C14.544915,34 14.0949281,34.0199787 13.6503791,34.0569307 L13.6503791,59 L16.3497909,59 L16.3497909,34.0569307 Z M10.5246013,34.6338403 C9.57976472,34.9089463 8.67639215,35.2690947 7.82518955,35.704208 L7.82518955,59 L10.5246013,59 L10.5246013,34.6338403 Z M4.69941177,37.8424683 C3.62593465,38.8033947 2.71304575,39.9130127 2,41.1350777 L2,58.6647807 C2.49467974,58.877829 3.12717648,59 3.93555555,59 L4.69941177,59 L4.69941177,37.8424683 L4.69941177,37.8424683 Z" id="Fill-255" fill="#BA2C00"></path>
                <path d="M29.9773364,47.598019 C29.9773364,47.4402387 29.9731873,47.2833426 29.9673095,47.1268003 L0.0326044869,47.1268003 C0.0267266659,47.2833426 0.0224047388,47.4402387 0.0224047388,47.598019 C0.0224047388,47.8012583 0.0180828114,48.756431 0.013242253,49.9365997 L29.9866719,49.9365997 C29.9818312,48.7566079 29.9773364,47.801789 29.9773364,47.598019 Z M29.3959508,43.8733763 C29.0799314,42.8853034 28.6411694,41.9441047 28.0957422,41.0634003 L1.90399897,41.0634003 C1.35874463,41.9441047 0.919982581,42.8853034 0.603790389,43.8733763 L29.3959508,43.8733763 Z M25.2799201,37.8099763 C23.8503995,36.5972606 22.1556855,35.634836 20.2820436,35 L9.71787048,35 C7.84422861,35.634836 6.14934162,36.5972606 4.71999384,37.8099763 L25.2799201,37.8099763 Z M0.00183236542,53.1900237 C-0.00093366799,54.328271 -0.00110654508,55.2471823 0.00511703008,55.4651033 C0.0103033427,55.6442867 0.0196387055,55.8231164 0.0350247665,56 L29.965408,56 C29.980794,55.8238237 29.9899564,55.6455249 29.9949698,55.4668724 C30.0010206,55.2489514 30.0010206,54.3293323 29.9980817,53.1900237 L0.00183236542,53.1900237 L0.00183236542,53.1900237 Z" id="Fill-256" fill="#BA2C00"></path>
                <path d="M27.9488497,40.9971075 L27.9469803,40.993882 C27.9225098,40.9523114 27.8978692,40.9107409 27.8728889,40.8691701 L25.3005882,40.8691701 L25.3005882,43.7156862 L28,43.7156862 L28,41.0852658 L27.9488497,40.9971075 Z M25.3005882,49.8577536 L28,49.8577536 L28,47.0114167 L25.3005882,47.0114167 L25.3005882,49.8577536 Z M25.3005882,56 L28,56 L28,53.1536631 L25.3005882,53.1536631 L25.3005882,56 Z M19.4753986,49.8577536 L22.1748105,49.8577536 L22.1748105,47.0114167 L19.4753986,47.0114167 L19.4753986,49.8577536 Z M13.6503791,49.8577536 L16.3497909,49.8577536 L16.3497909,47.0114167 L13.6503791,47.0114167 L13.6503791,49.8577536 Z M7.82518955,49.8577536 L10.5246013,49.8577536 L10.5246013,47.0114167 L7.82518955,47.0114167 L7.82518955,49.8577536 Z M2,49.8577536 L4.69941177,49.8577536 L4.69941177,47.0114167 L2,47.0114167 L2,49.8577536 Z M19.4753986,43.7156862 L22.1748105,43.7156862 L22.1748105,40.8691701 L19.4753986,40.8691701 L19.4753986,43.7156862 Z M13.6503791,43.7156862 L16.3497909,43.7156862 L16.3497909,40.8691701 L13.6503791,40.8691701 L13.6503791,43.7156862 Z M7.82518955,43.7156862 L10.5246013,43.7156862 L10.5246013,40.8691701 L7.82518955,40.8691701 L7.82518955,43.7156862 Z M4.69941177,40.8691701 L2.12694118,40.8691701 C2.08394771,40.9408438 2.04163398,41.0126966 2,41.0850866 L2,43.7156862 L4.69941177,43.7156862 L4.69941177,40.8691701 Z M19.7952157,37.57344 L22.1748105,37.57344 L22.1748105,35.5809141 L22.0949412,35.5397021 L22.0548366,35.5194544 L22.014732,35.4992065 L21.9744575,35.4789585 L21.9341829,35.4588899 L21.8937386,35.4390006 L21.8922091,35.4382839 L21.8532942,35.4191112 L21.8126797,35.3994011 L21.7720654,35.37987 L21.7314509,35.360339 L21.7265229,35.3580093 L21.6906666,35.3409872 L21.6497125,35.3218145 L21.6209935,35.3081963 L21.6089282,35.3024627 L21.5679738,35.2834688 L21.5569282,35.2784519 L21.5268497,35.2646546 L21.4857255,35.2458402 L21.4571765,35.23276 L21.4446012,35.2272051 L21.4033072,35.2085699 L21.3747582,35.1958481 L21.3618431,35.190114 L21.302366,35.1637743 L21.292,35.1592945 L21.2790849,35.1535609 L21.2374509,35.1354632 L21.2090718,35.1232784 L21.1958169,35.1175448 L21.1368497,35.0922798 L21.125804,35.0876209 L21.1123791,35.0818871 L21.0704052,35.0641479 L21.042366,35.0523218 L21.0286012,35.046767 L20.9866274,35.029207 L20.9585882,35.0177392 L20.9444837,35.0120052 L20.9152549,35 L20.9133857,35.0455128 C20.8765098,35.911867 20.4644183,36.8054574 19.7952157,37.57344 Z M9.08151635,35.0014335 L9.04209152,35.01756 L9.04141177,35.0177392 L9.01337257,35.029207 C8.94335948,35.0582346 8.87368628,35.0876209 8.80418302,35.1173656 L8.79092812,35.1232784 L8.78294118,35.1266831 L8.72108497,35.1535609 L8.708,35.1592945 L8.70018302,35.1626988 L8.63815688,35.190114 L8.62524185,35.1958481 L8.59686274,35.2085699 L8.55556865,35.227026 L8.54282354,35.23276 L8.51427451,35.2456611 L8.47315034,35.2644753 L8.46074511,35.2702094 L8.43219608,35.2834688 L8.39124185,35.3024627 L8.37900652,35.3081963 L8.3502876,35.3216354 L8.30933334,35.3409872 L8.26871895,35.360339 L8.22793465,35.3796908 L8.19054903,35.3977885 L8.18732028,35.3994011 L8.14687583,35.4191112 L8.10626146,35.4390006 L8.06598694,35.4588899 L8.02571243,35.4787793 L8.02554249,35.4789585 L7.98543792,35.4990274 L7.94941177,35.5173041 L7.93853597,35.5226795 C7.90081045,35.5420313 7.86274511,35.5613831 7.82518955,35.5809141 L7.82518955,37.57344 L10.3883138,37.57344 C9.61477125,36.7911228 9.11890198,35.8857062 9.08287583,35.0333283 L9.08151635,35.0014335 Z M2,56 L4.69941177,56 L4.69941177,53.1536631 L2,53.1536631 L2,56 Z M7.82518955,56 L10.5246013,56 L10.5246013,53.1536631 L7.82518955,53.1536631 L7.82518955,56 Z M13.6503791,56 L16.3497909,56 L16.3497909,53.1536631 L13.6503791,53.1536631 L13.6503791,56 Z M19.4753986,56 L22.1748105,56 L22.1748105,53.1536631 L19.4753986,53.1536631 L19.4753986,56 Z" id="Fill-257" fill="#992F15"></path>
                <path d="M4.040544,39.581009 C6.18818504,46.7685152 6.94798586,51.3340583 7.25009838,59 L9.49004192,59 C9.57139329,53.217962 7.88578621,42.5901791 5.96481646,38.4039547 C5.64984069,37.7013922 5.26985339,38.05979 4.80364753,38.396924 C4.38437513,38.7002762 3.84742141,38.912914 4.040544,39.581009 Z M26.9546834,39.581009 C24.8068684,46.7685152 24.0472414,51.3340583 23.7449551,59 L21.5051855,59 C21.423834,53.217962 23.1092672,42.5901791 25.030237,38.4039547 C25.3453866,37.7013922 25.8013366,38.05979 26.2675425,38.396924 C26.6868148,38.7002762 27.1478059,38.912914 26.9546834,39.581009 L26.9546834,39.581009 Z" id="Fill-258" fill="#3D3D3D"></path>
                <path d="M7.9026063,14.2804747 C8.07809955,15.123497 8.17592911,16.0590418 8.17592911,17.0444334 C8.17592911,20.7498836 6.79348229,23.7534566 5.08788124,23.7534566 C3.38261348,23.7534566 2,20.7498836 2,17.0444334 C2,12.6995456 4.79472583,14.2804747 7.9026063,14.2804747 Z M15.2273246,32.7416132 C18.6100278,32.7416132 21.352089,34.3666172 21.352089,36.3709816 C21.352089,38.3751708 18.6100278,40 15.2273246,40 C11.844788,40 9.10256017,38.3751708 9.10256017,36.3709816 C9.10256017,34.3666172 11.844788,32.7416132 15.2273246,32.7416132 Z M22.0973936,14.2804747 C21.9219005,15.123497 21.8240708,16.0590418 21.8240708,17.0444334 C21.8240708,20.7498836 23.2065178,23.7534566 24.9121188,23.7534566 C26.6173866,23.7534566 28,20.7498836 28,17.0444334 C28,12.6995456 25.2052741,14.2804747 22.0973936,14.2804747 L22.0973936,14.2804747 Z" id="Fill-259" fill="#F49A6A"></path>
                <path d="M25.91622,7 C26.6123395,9.29521795 27,11.8433576 27,14.5266592 C27,16.5148907 26.7947158,18.428952 26.4109622,20.2206918 C25.7146651,23.4723491 24.9327738,26.9791245 23.2214208,29.1398565 C19.0201976,34.4432713 10.5005474,34.1822399 6.36485173,28.9703972 C4.68972539,26.8593373 3.86272834,23.6112281 3.15488847,20.4499603 C2.73899258,18.5924978 3.29233653,16.6421118 3.29233653,14.5688972 C3.29233653,11.8855957 2.90325547,9.29521795 3.59937496,7 L25.91622,7" id="Fill-260" fill="#FAB385"></path>
                <path d="M14.599082,17.6134098 C14.4753818,17.5246763 14.3247607,17.1523847 14.1737988,17.092526 C13.9294655,16.9958438 13.4355167,17.0213121 13.1467127,17.0213121 C10.727233,17.0213121 8.30758294,17.0213121 5.88810326,17.0213121 C5.26040162,17.0213121 4.90974745,17.2021857 5.02015751,17.8880459 C5.2402961,19.2563595 5.46060503,20.6246733 5.68074362,21.992987 C5.77292239,22.5657809 6.05371833,22.6940959 6.53897735,22.7289728 C8.50608249,22.8707518 10.4731876,22.8566389 12.4402927,22.9984178 C12.8159936,23.0255084 13.1700555,22.702369 13.3591839,22.2089 C13.7161423,21.2776031 14.0731008,20.502036 14.4298888,19.5707391 C14.6534351,18.9877256 14.6314553,18.7903056 15,18.7503998 C15.3680336,18.7104941 15.3465649,18.9877256 15.5699408,19.5707391 C15.9268992,20.502036 16.2838577,21.2776031 16.6408161,22.2089 C16.8299445,22.702369 17.1840064,23.0255084 17.5597073,22.9984178 C19.5268124,22.8566389 21.4939175,22.8707518 23.4610226,22.7289728 C23.9462817,22.6940959 24.2270777,22.5657809 24.3192564,21.992987 C24.539395,20.6246733 24.7597039,19.2563595 24.9798425,17.8880459 C25.0902526,17.2021857 24.7395985,17.0213121 24.1118967,17.0213121 C21.8731966,17.0213121 19.6344963,17.0221232 17.395796,17.0213121 C17.3160554,17.0213121 16.8442569,17.0026569 16.4293673,17.0000615 C16.0509402,16.9976282 15.9766519,17.0678688 15.8996375,17.136974 C15.770485,17.2526358 15.6469552,17.5955658 15.3731451,17.6896526 C15.2223536,17.7415626 14.7260195,17.7044145 14.599082,17.6134098" id="Fill-261" fill="#6E4229"></path>
                <path d="M8,36.7019393 C8.06825938,36.2230389 8.24635103,35.751863 8.42807347,35.2535624 C8.53373031,34.9641743 8.56495534,34.9683056 8.65064266,35.0428533 C8.73396994,35.115245 8.87212257,35.2521249 8.98268099,35.3780477 C10.5118002,37.1199443 13.1730085,39.0215343 15.5,40.0447209 C17.8269914,39.0215343 20.4881998,37.1199443 22.0175005,35.3780477 C22.128059,35.2521249 22.2662116,35.115245 22.3495389,35.0428533 C22.4352262,34.9683056 22.4664513,34.9641743 22.5719266,35.2535624 C22.7538304,35.751863 22.9319222,36.2230389 23,36.7019393 C21.5665529,40.2854286 19.9488417,41.997147 18.4108271,43.6174326 C17.88218,44.1744729 17.6599739,44.155971 17.4526542,43.3443909 C17.0993755,41.9622983 16.4327572,41.134911 15.5,40.4824857 C14.5674243,41.134911 13.9006245,41.9622983 13.5475274,43.3443909 C13.3400262,44.155971 13.1180016,44.1744729 12.5891729,43.6174326 C11.0513398,41.997147 9.43362865,40.2854286 8,36.7019393" id="Fill-262" fill="#D4461A"></path>
                <path d="M18.2854318,41.4901093 C17.6551386,41.7336679 16.9931316,42.1273172 16.3545202,42.3848376 C15.5985844,42.6894797 15.5718962,42.6223847 14.8171735,42.1284807 C14.2880878,41.7823407 13.7952218,41.6184817 13.2663094,41.2723417 C12.4736339,40.7538104 12.3583892,40.9721597 12.2755517,41.9580286 C12.1941006,42.926251 12.1660259,43.6922193 12.0440226,44.6402743 C11.9015697,45.7454015 12.081802,45.6532915 12.925601,45.2305546 C13.5640392,44.9107872 14.0095942,44.8097569 14.6421402,44.4764153 C15.6434692,43.948964 15.5595919,44.0852869 16.5584946,44.7319965 C17.0565596,45.0546729 17.5549712,45.3771552 18.0532094,45.6998312 C18.6493623,46.0859179 18.8283814,46.2338758 18.8630416,45.3054062 C18.9006477,44.2920012 18.9613028,43.1422736 18.9990823,42.1288686 C19.0139861,41.725911 18.8503907,41.27176 18.2854318,41.4901093" id="Fill-263" fill="#2A2A2A"></path>
                <path d="M9.87783471,17.0357924 C11.1443387,17.0357924 12.6647099,16.9660826 13.5011056,17.0212328 C14.0541496,17.0578524 14.1091208,17.14146 14.3071839,17.3636046 C14.4003018,17.4679486 14.3916397,17.7553908 14.3963039,17.904296 C14.4264548,18.8636872 11.0084098,20 8.52437618,20 C6.0405091,20 6.00486109,18.7809622 6.00486109,17.821571 C6.00486109,17.4269168 5.92873424,17.1824916 6.37899866,17.0803536 C7.02332822,16.9343162 8.41909794,17.0357924 9.87783471,17.0357924 Z M18.4540141,17.0188062 C19.1211651,17.0188062 22.0879462,16.9826276 22.5282159,17.0110852 C22.8192302,17.0300568 22.8488813,17.0748386 22.9528271,17.1915362 C23.0016349,17.2460246 22.9974703,17.39868 22.9999609,17.4763314 C23.0151277,17.9815062 18.6122647,18.7044138 17.3037826,18.7044138 C16.7365794,18.7044138 16.5771629,18.629189 16.4842115,18.4251336 C16.3927594,18.2235048 16.2593291,17.1220472 16.6109786,17.0424104 C16.9504675,16.9654208 17.685583,17.0188062 18.4540141,17.0188062 L18.4540141,17.0188062 Z" id="Fill-264" fill="#835B3E"></path>
                <path d="M3.0532502,9.58083822 C3.66001494,10.5475165 4.83475347,11.9410442 6.28153674,12.7050908 C10.5410861,14.9545805 20.3451982,10.9700139 24.128754,8.41205059 C24.3220311,8.84638556 24.3462543,12.1708327 26.3362799,17.023547 C26.2783477,17.5964514 26.2724189,19.0065169 25.8907772,20.7215743 C25.2347192,23.6687854 23.4245885,29.0823925 21.0883241,30.9325377 C20.3541759,31.5139721 16.6866541,31.9127943 16.2904446,30.4828834 C16.1005554,29.7980443 14.2518031,29.7980443 14.0619139,30.4828834 C13.6657043,31.9127943 9.99818247,31.5139721 9.26403439,30.9325377 C6.92776997,29.0823925 5.11746994,23.6687854 4.46158132,20.7215743 C3.99964735,18.6458186 4.08823974,17.0165837 3.96847907,16.7779171 C3.71117154,16.2647229 3.76300571,18.9661297 4.0799395,21.1466829 C4.53763862,24.295307 5.67290865,28.7934161 7.17609968,32.3328547 C7.75677795,33.700096 8.5725733,34.850431 9.15765577,35.8346916 C9.4805183,36.3776538 10.9342466,36.7362631 12.7296401,36.8945035 C13.5337474,36.965181 14.3781701,37 15.1895613,37 C17.963367,36.9987787 20.7336157,36.6102273 21.1947026,35.8346916 C21.7796157,34.850431 22.5955805,33.700096 23.1762587,32.3328547 C24.6794497,28.7934161 25.8147198,24.295307 26.2724189,21.1466829 C26.5664847,19.1238483 26.8224371,16.3864064 26.9352526,14.3503413 C27.1488569,10.4980771 26.8380212,7.51204579 25.9421031,5.74110795 C25.3182298,0.597676365 14.6514006,-2.68969121 7.85722783,2.95753416 C7.14255994,3.5516766 7.00077824,3.58510037 6.00847565,3.51616383 C4.75784917,3.42929684 3.93375359,2.88877171 3.32597249,3.03308582 C2.92451173,3.12830877 2.63163172,3.42059274 2.43225647,3.90958951 C1.64153125,5.84973524 1.98658423,7.88092591 3.0532502,9.58083822" id="Fill-265" fill="#412319"></path>
                <path d="M3.14766835,8.38975822 C3.56818356,10.2624303 5.70639359,12.2127521 7.97797148,12.7246893 C11.0156793,13.4091094 13.2664995,12.7165839 16.2163334,11.7520411 C17.5052099,11.3305602 20.7437478,9.60054317 22.9537448,8.11320191 C24.6441086,6.97552771 25.8330026,7.17556902 24.2725469,5.80218971 C23.4588473,5.08615848 21.2408934,4.80927794 18.2831025,5.13624986 C15.5091897,5.44279617 12.5403281,7.07117142 9.82073108,7.69674634 C8.342787,8.03668693 6.40869379,7.23263105 5.21253471,7.12969245 C3.18001567,6.95493997 2.71608239,6.46926428 3.14766835,8.38975822" id="Fill-266" fill="#522D21"></path>
                <path d="M13,37 C11.28875,35.2352943 9.71125,33.7647057 8,32 C8.32910713,33.697451 8.98321431,35.9649017 10.6317857,36.492745 C11.4657143,36.7596079 12.1658929,36.732941 13,37" id="Fill-267" fill="#522D21"></path>
                <path d="M13.9597283,25.0164589 C13.6739196,25.0626675 13.4007333,25.1743383 13.1091543,25.3061687 C11.4437098,26.0584174 10.7469496,26.3682868 9,25.7940769 C9.0800625,26.7737444 10.5404821,27.6048196 11.270241,27.7878418 C12.6323857,28.1294228 13.9532368,28.1006558 15.0596863,27.388953 C16.220232,28.1353122 17.8258099,28.0283982 19.3147202,27.4729892 C20.0062512,27.2149912 20.770271,26.6518806 21,25.7340511 C20.1274269,25.9340619 19.8107832,26.0371252 19.1439562,25.9037091 C18.3885917,25.7526251 17.6752419,25.6062979 17.0103986,25.3061687 C16.6751818,25.1546317 16.3641282,25.0295967 16.0307147,25.0001501 C15.9297349,24.9910895 15.5012923,25.3951881 15.0369658,25.3983593 C14.5551482,25.4013039 14.0367254,25.0040007 13.9597283,25.0164589" id="Fill-268" fill="#412319"></path>
            </g>
        </g>
    </g>
</svg>