<?xml version="1.0" encoding="UTF-8"?>
<svg width="65px" height="65px" viewBox="0 0 65 65" version="1.1" xmlns="http://www.w3.org/2000/svg" xmlns:xlink="http://www.w3.org/1999/xlink">
    <!-- Generator: Sketch 60.1 (88133) - https://sketch.com -->
    <title>writer</title>
    <desc>Created with Sketch.</desc>
    <g id="Page-1" stroke="none" stroke-width="1" fill="none" fill-rule="evenodd">
        <g id="writer">
            <rect id="BG" fill-opacity="0.01" fill="#FFFFFF" x="0" y="0" width="65" height="65"></rect>
            <g id="punk" transform="translate(18.000000, 1.000000)" fill-rule="nonzero">
                <path d="M7.90243966,16.258815 C8.07826623,17.0365374 8.17592914,17.8999559 8.17592914,18.809047 C8.17592914,22.2283458 6.79348231,25 5.08804789,25 C3.38261348,25 2,22.2283458 2,18.809047 C2,14.8000412 4.79472585,16.258815 7.90243966,16.258815 Z M22.0973937,16.258815 C21.9219005,17.0365374 21.8240708,17.8999559 21.8240708,18.809047 C21.8240708,22.2283458 23.2065177,25 24.9121188,25 C26.6175532,25 28,22.2283458 28,18.809047 C28,14.8000412 25.2052741,16.258815 22.0973937,16.258815 L22.0973937,16.258815 Z" id="Fill-41" fill="#F49A6A"></path>
                <path d="M4.33958103,23 L4.70341786,23 C4.89018744,23 5.04299891,23.162269 5.04299891,23.3609243 L5.04299891,26.6388496 C5.04299891,26.8375049 4.89018744,27 4.70341786,27 L4.33958103,27 C4.15281147,27 4,26.8375049 4,26.6388496 L4,23.3609243 C4,23.162269 4.15281147,23 4.33958103,23 Z M25.2965821,23 L25.6604189,23 C25.8473503,23 26,23.162269 26,23.3609243 L26,26.6388496 C26,26.8375049 25.8473503,27 25.6604189,27 L25.2965821,27 C25.1098126,27 24.9570011,26.8375049 24.9570011,26.6388496 L24.9570011,23.3609243 C24.9570011,23.162269 25.1098126,23 25.2965821,23 L25.2965821,23 Z" id="Fill-42" fill="#4D4D4D"></path>
                <path d="M28.9781173,48.9156217 C28.9781173,41.7826151 22.4960715,36 14.4999664,36 C6.50386124,36 0.0216483737,41.7826151 0.0216483737,48.9156217 C0.0216483737,49.4703074 -0.0124430291,55.8519086 0.00493690177,56.4646426 C0.0559068914,58.254132 0.547892628,60 3.61912696,60 L25.372283,60 C28.4523744,60 28.9445273,58.2573569 28.995163,56.4665097 C29.0123758,55.8537754 28.9781173,49.4718352 28.9781173,48.9156217" id="Fill-43" fill="#336699"></path>
                <polyline id="Fill-44" fill="#E6E6C9" points="21.004484 60 7 45.9974781 8.99775802 44 25 60 21.004484 60"></polyline>
                <polyline id="Fill-45" fill="#D0300E" points="21.3160484 60 8 45.8918823 8.84197581 45 23 60 21.3160484 60"></polyline>
                <polyline id="Fill-46" fill="#E6E6C9" points="8.99547966 60 23 45.9974781 21.0022602 44 5 60 8.99547966 60"></polyline>
                <polyline id="Fill-47" fill="#D0300E" points="7.68395159 60 21 45.8918823 20.1581904 45 6 60 7.68395159 60"></polyline>
                <polygon id="Fill-48" fill="#E6E6C9" points="5 54 25 54 25 49 5 49"></polygon>
                <polygon id="Fill-49" fill="#E6E6C9" points="12 60 17 60 17 41 12 41"></polygon>
                <polygon id="Fill-50" fill="#D0300E" points="13 60 16 60 16 41 13 41"></polygon>
                <path d="M21,22 C20.8027705,26.5996216 20.6053708,31.1992431 20.4079709,35.7987019 C20.3207676,37.833698 17.9426025,40.0342744 15.1304644,39.9995953 C12.3842398,39.9655673 9.67122744,37.725916 9.58845237,35.7877936 C9.39241513,31.1917537 9.19620755,26.5960397 9,22 C13.0001135,22 17.0000567,22 21,22" id="Fill-51" fill="#F49A6A"></path>
                <path d="M14.9999175,35 C11.9569046,34.9991414 8.90019641,33.6069405 6.91639247,30.9051399 C3.51930777,26.2780938 4.02686629,20.3512368 4.02686629,15.2366542 C4.02686629,8.81899786 9.48474885,5.90597156 14.9999175,6.00231108 C20.5150863,5.90597156 25.9731357,8.81899786 25.9731357,15.2366542 C25.9731357,20.3512368 26.4806943,26.2780938 23.0834426,30.9051399 C21.0998057,33.6069405 18.0430974,34.9991414 14.9999175,35" id="Fill-52" fill="#FAB385"></path>
                <polygon id="Fill-53" fill="#D0300E" points="5 54 25 54 25 51 5 51"></polygon>
                <path d="M9.88770942,37 C4.10910855,38.8892369 0.0233767868,43.5316032 0.0233767868,48.9595875 C0.0233767868,49.512073 -0.0134364845,55.8683617 0.00533106557,56.4786654 C0.0603705154,58.2610567 0.591636548,60 3.9080792,60 L8.55503289,60 C9.99706646,57.0519453 12.8109358,54.9503701 11.7767355,51.3920115 C10.6135083,47.3893655 10.1520792,40.9590287 9.88770942,37" id="Fill-54" fill="#383838"></path>
                <path d="M19.0499919,37 C24.8651832,38.8892369 28.976476,43.5316032 28.976476,48.9595875 C28.976476,49.512073 29.0135212,55.8683617 28.9946353,56.4786654 C28.9394306,58.2610567 28.4048173,60 25.0674791,60 L19.3561597,60 C18.9154306,57.9197263 19.028927,57.5554037 19.154227,55.1265297 C19.262094,53.0347601 19.6247376,50.8921034 19.5671722,48.7365984 C19.4562182,44.576389 18.8191857,40.4357907 19.0499919,37" id="Fill-55" fill="#383838"></path>
                <path d="M13.3221165,15.424684 C13.0493548,13.0837618 12.6410933,8.27217278 11.3301458,6.44194702 C11.1705062,5.21265231 11.050336,4.02459284 11.0082236,2.95885902 C10.9828504,2.31375966 10.9898985,1.64467826 11.4289955,1.14260842 C12.0414758,0.441953553 13.2948051,0.0164881791 14.700902,0.00061518051 C16.0160784,-0.0143951552 17.6959943,0.245093865 18.4654711,0.799786154 C19.1545996,1.29616242 19.0094087,2.02942595 18.9315271,3.01355185 C18.8497691,4.04891995 18.7303037,5.17900844 18.5868747,6.33998025 C16.9481903,8.33514718 16.8607938,13.0454595 16.5406337,15.3827585 C16.5103268,16.166229 13.7961016,16.2295486 13.3221165,15.424684" id="Fill-56" fill="#335B60"></path>
                <path d="M28.9782023,49.578897 C28.9782023,46.7117971 27.792687,44.0773588 25.8115362,42.0001595 C25.1021321,44.0452841 24.705902,46.3241871 24.705902,48.7270808 C24.705902,49.0652222 24.6990503,54.8150605 24.6937026,60 L25.3723574,60 C28.4524579,60 28.944612,58.3616346 28.995081,56.6779491 C29.0124608,56.1018805 28.9782023,50.1018273 28.9782023,49.578897 Z M3.1886488,42 C1.20716374,44.0773588 0.0216484372,46.7117971 0.0216484372,49.578897 C0.0216484372,50.1003911 -0.0124430656,56.1001249 0.00493691625,56.6761939 C0.0559070554,58.3586024 0.547894234,60 3.61913757,60 L4.30631532,60 C4.30113474,54.8150605 4.29445013,49.0652222 4.29445013,48.7270808 C4.29445013,46.3241871 3.89788575,44.0451245 3.1886488,42 L3.1886488,42 Z" id="Fill-57" fill="#424242"></path>
                <path d="M28.8954875,47 C27.8334933,47.0890354 27,47.9490824 27,48.9968 C27,50.0789646 27.8884927,50.9604707 29,51 C28.9965711,49.9029646 28.9936907,49.045553 28.9936907,48.848847 C28.9936907,48.2224 28.9602249,47.6051763 28.8954875,47" id="Fill-58" fill="#C24025"></path>
                <path d="M9.08463031,37 C9.2768565,42.0222094 10.078371,47.0239577 10.9178003,52.0065239 C10.9867646,52.4160632 11.0672749,52.7071523 10.9056302,53 C9.8830243,50.8816502 6.48614418,47.3764298 4.7044633,45.2197157 C4.04524607,44.4215781 3.50882268,43.9488977 4.7325483,43.4782951 C5.56604854,43.1576334 6.9102276,42.7731911 7.14504937,42.7033359 C8.0348756,42.4387818 8.10430796,42.0557782 7.22758803,41.555923 C6.57539205,41.183789 5.62939582,40.7165437 4.92789505,40.2756735 C4.22951485,39.8367219 4.41378362,39.2176177 4.88561152,38.981837 C6.32777602,38.2610671 7.18904918,37.6165467 9.08463031,37" id="Fill-59" fill="#4D4D4D"></path>
                <path d="M6.99989609,44 C7.5522078,44 8,44.4477923 8,45.000104 C8,45.5522077 7.5522078,46 6.99989609,46 C6.4475844,46 6,45.5522077 6,45.000104 C6,44.4477923 6.4475844,44 6.99989609,44" id="Fill-60" fill="#B3B3B3"></path>
                <path d="M8,46 C8.55224787,46 9,46.4477522 9,47 C9,47.5522478 8.55224787,48 8,48 C7.44760025,48 7,47.5522478 7,47 C7,46.4477522 7.44760025,46 8,46" id="Fill-61" fill="#B3B3B3"></path>
                <path d="M20.0328325,36 C19.8319924,41.2412067 20.6320952,47.2117582 20.2936152,52.3865698 C20.2654357,52.8189721 19.9665374,54.6942158 20.1352887,55 C21.2028524,52.8223085 23.4542815,46.4917555 24.5809733,44.0526542 C24.8769396,43.4120585 25.2186773,42.6101462 24.6286992,42.4134633 C24.0216181,42.2109418 22.4758171,41.7970569 22.1552548,41.7018016 C21.2263082,41.4258785 21.1036541,41.3549793 21.9715178,40.7545875 L24.3721517,39.0932093 C25.4709898,38.3326688 24.968808,37.7492931 24.0786287,37.3811177 C22.6093848,36.7735527 21.8004861,36.574701 20.0328325,36" id="Fill-62" fill="#4D4D4D"></path>
                <path d="M21.5001015,44 C22.3284582,44 23,44.6715873 23,45.5 C23,46.3284127 22.3284582,47 21.5001015,47 C20.6717448,47 20,46.3284127 20,45.5 C20,44.6715873 20.6717448,44 21.5001015,44" id="Fill-63" fill="#B3B3B3"></path>
                <path d="M21.9998962,38 C22.5522078,38 23,38.4477923 23,39.000104 C23,39.5524157 22.5522078,40 21.9998962,40 C21.4477922,40 21,39.5524157 21,39.000104 C21,38.4477923 21.4477922,38 21.9998962,38" id="Fill-64" fill="#B3B3B3"></path>
                <path d="M13.5973162,16.6713926 L13.3855414,9.3585215 C13.3134975,6.87012238 13.1496481,3.82151685 13.0060272,2.67716207 C12.9072196,1.88933383 14.0485631,2.04547684 14.5746547,2.02483127 C15.1205078,2.00383871 16.0564562,1.84387887 15.9973274,2.71480989 C15.9062999,4.0593747 15.9666736,6.38868144 15.8639761,9.83007338 L15.6596702,16.6713926 C15.6456659,17.143465 13.6089864,17.0742416 13.5973162,16.6713926" id="Fill-65" fill="#3D6E6E"></path>
            </g>
        </g>
    </g>
</svg>